<svg xmlns="http://www.w3.org/2000/svg" viewBox="0 0 512 512">
  <rect width="512" height="512" rx="112" fill="#0f172a"/>
  <circle cx="256" cy="256" r="166" fill="#fbbf24"/>
  <path d="M132 306h248v34c0 18-14 32-32 32H164c-18 0-32-14-32-32v-34Z" fill="#fff"/>
  <path d="M161 284c5-82 43-128 95-128s90 46 95 128H161Z" fill="#fff"/>
  <rect x="226" y="124" width="60" height="42" rx="21" fill="#fff"/>
  <rect x="116" y="286" width="280" height="34" rx="17" fill="#0f172a"/>
  <path d="M194 216c10-16 22-27 37-35M283 177c16 8 30 21 40 39" fill="none" stroke="#0f172a" stroke-width="18" stroke-linecap="round"/>
</svg>
